<svg height="511pt" viewBox="-9 0 511 511.99505" width="511pt" xmlns="http://www.w3.org/2000/svg"><g fill="#d8deec"><path d="m454.214844 175.894531c-1.097656 0-2.125-.214843-3.0625-.640625-2.460938-1.140625-4.265625-3.335937-6.359375-6.085937-16.941407-22.210938-32.726563-45.765625-46.917969-70.003907l-1.0625-1.8125 1.863281-.972656c1.414063-.734375 2.753907-1.695312 3.984375-2.851562l1.574219-1.480469 1.351563 1.683594c19.816406 24.617187 38.535156 50.386719 55.628906 76.589843l.796875 1.222657-.921875 1.132812c-.859375 1.0625-2.039063 1.925781-3.402344 2.5-1.125.472657-2.328125.71875-3.472656.71875zm0 0"/><path d="m368.9375 76.578125c-.183594-.074219-.34375-.117187-.492188-.136719l-76.640624-8.273437 1.363281-2.601563c1.070312-2.042968 1.957031-4.128906 2.632812-6.203125l.5-1.535156 79.480469 8.203125-1.640625 2.699219c-1.214844 2.003906-2.050781 4.148437-2.488281 6.378906l-.464844 2.382813zm0 0"/><path d="m329.261719 212.738281.8125-1.660156c10.652343-21.878906 22.699219-43.4375 35.808593-64.085937l1.019532-1.605469 1.65625.9375c2.445312 1.390625 5.125 2.140625 7.957031 2.230469l3.117187.101562-1.390624 2.789062c-5.492188 11.035157-10.882813 22.582032-15.9375 33.460938-5.351563 11.519531-10.882813 23.425781-16.675782 34.996094l-.960937 1.914062zm0 0"/><path d="m272.199219 86.007812 3.160156-1.953124c2.863281-1.773438 5.523437-3.757813 7.902344-5.898438l1.101562-.984375 1.265625.757813c24.046875 14.421874 49.691406 26.394531 76.226563 35.574218l2.699219.933594-1.800782 2.21875c-.3125.386719-.617187.792969-.914062 1.207031-1.222656 1.773438-2.144532 3.757813-2.71875 5.871094l-.625 2.28125zm0 0"/><path d="m285.53125 166.398438c-13.808594-22.289063-25.875-45.882813-35.859375-70.132813l-.90625-2.195313 2.316406-.519531c1.960938-.4375 3.679688-.871093 5.261719-1.328125 2.417969-.683594 4.796875-1.46875 7.074219-2.339844l1.675781-.636718 37.152344 72.570312-3.03125.203125c-3.984375.265625-7.648438 1.914063-10.59375 4.761719l-1.785156 1.726562zm0 0"/><path d="m195.875 164.429688c-2.644531-1.621094-5.578125-2.445313-8.714844-2.445313h-2.855468l25.765624-70.796875 1.890626.703125c2.503906.933594 5.0625 1.683594 7.601562 2.230469l2.488281.5-.714843 2.15625-23.324219 68.960937zm0 0"/><path d="m128.609375 124.558594c-.554687-2.433594-1.539063-4.695313-2.9375-6.71875-.84375-1.214844-1.796875-2.316406-2.828125-3.265625l-2.019531-1.863281 65.621093-36.96875 1.730469-1.3125 1.214844 1.535156c2.515625 3.183594 5.570313 6.109375 9.078125 8.703125l2.476562 1.828125-71.738281 40.6875zm0 0"/><path d="m116.105469 81.082031c.421875-3.636719-.175781-7.289062-1.730469-10.558593l-1.082031-2.273438 67.144531-14.714844.296875 2.148438c.507813 3.707031 1.519531 7.339844 3.003906 10.789062l1.054688 2.453125-2.769531.335938-66.242188 14.609375zm0 0"/><path d="m141.902344 219.898438c-5.867188-11.710938-11.613282-24.085938-16.6875-35-5.011719-10.800782-10.367188-22.28125-15.925782-33.453126l-1.390624-2.789062 3.117187-.101562c2.832031-.089844 5.507813-.839844 7.957031-2.230469l1.652344-.9375 1.023438 1.605469c13.105468 20.65625 25.152343 42.21875 35.808593 64.085937l.808594 1.660156-15.40625 9.074219zm0 0"/><path d="m33.316406 175.894531c-1.144531 0-2.347656-.246093-3.46875-.714843-1.367187-.574219-2.546875-1.441407-3.410156-2.503907l-.917969-1.132812.796875-1.222657c17.09375-26.199218 35.808594-51.96875 55.628906-76.589843l1.351563-1.679688 1.574219 1.476563c1.230468 1.15625 2.570312 2.117187 3.984375 2.855468l1.863281.96875-1.0625 1.816407c-14.191406 24.238281-29.976562 47.789062-46.917969 70-2.097656 2.753906-3.898437 4.949219-6.347656 6.082031-.949219.429688-1.976563.644531-3.074219.644531zm0 0"/></g><path d="m474.996094 341.808594c-2.449219-1.171875-5.0625-2.074219-7.171875-2.480469-1.695313-.316406-3.546875-.613281-5.824219-.921875l-2.230469-.300781.5625-2.179688c1.328125-5.128906 2.980469-11.511719 2.554688-17.863281-.332031-4.820312-1.898438-9.167969-4.539063-12.570312l-.8125-1.050782 9.390625-16.714844c1.433594-2.539062 2.78125-4.699218 4.8125-5.476562.507813-.195312 1.0625-.292969 1.648438-.292969 1.421875 0 2.972656.578125 4.257812 1.585938 2.015625 1.566406 3.394531 4.03125 4.367188 6.007812 7.984375 16.234375 6.160156 36.984375-4.535157 51.632813l-.980468 1.34375zm0 0" fill="#696b77"/><path d="m186.507812 368.707031 118.445313.507813-.800781 17.546875-2.25-.246094-115.546875.519531zm0 0" fill="#696b77"/><path d="m186.308594 391.105469 117.675781-.539063-.941406 20.554688-116.953125 4.574218zm0 0" fill="#696b77"/><path d="m185.871094 439.941406.1875-20.167968 116.800781-4.582032-1.113281 24.472656c.003906.058594.003906.113282.003906.171876v2.03125zm0 0" fill="#696b77"/><path d="m57.351562 331.929688c-.0625-.25-.183593-.492188-.359374-.714844-3.769532-4.804688-5.433594-11.277344-4.445313-17.3125 1.5625-9.453125 9.226563-15.308594 16.515625-19.792969l2.488281-1.53125.527344 2.875c1.433594 7.847656-.183594 16.09375-4.441406 22.632813-.558594.859374-.398438 1.996093.375 2.652343.480469.40625.980469.492188 1.320312.492188.507813 0 .996094-.191407 1.375-.539063 2.933594-2.664062 6.980469-4.199218 11.097657-4.199218 1.960937 0 3.855468.339843 5.632812 1.011718 5.136719 1.933594 9.15625 6.703125 10.246094 12.148438l.460937 2.3125-2.355469.078125c-11.621093.382812-23.53125.835937-36.410156 1.390625l-1.625.070312zm0 0" fill="#935252"/><path d="m464.703125 366.328125c-3.199219 0-6.394531-.179687-8.957031-.324219l-.503906-.03125c-1.917969-.105468-3.574219-.199218-4.964844-.207031l-420.035156-1.78125c-5.394532-.03125-10.875-.0625-15.675782-2.132813-4.023437-1.738281-8.242187-5.859374-7.992187-10.796874.222656-4.675782 4.269531-8.113282 7.667969-9.636719 4.367187-1.953125 9.335937-2.210938 14.144531-2.460938 8.5625-.445312 16.023437-.808593 22.804687-1.109375 53.859375-2.449218 108.546875-3.6875 162.527344-3.6875 7.613281 0 15.316406.023438 22.894531.074219 61.792969.398437 124.476563 2.445313 186.3125 6.082031 4.261719.25 8.695313.378906 12.980469.503906l.421875.015626c10.257813.289062 20.867187.589843 30.726563 2.484374 5.253906 1.011719 12.386718 4.863282 15.234374 9.554688 1.277344 2.085938 1.59375 4.121094.964844 6.214844-1.9375 6.488281-11.515625 7.238281-18.550781 7.238281zm0 0" fill="#bfc7d8"/><path d="m381.535156 474.488281c-36.847656-2.484375-74.085937-4.167969-110.679687-5.003906-17.710938-.40625-36.660157-.59375-59.644531-.59375-16.453126 0-32.972657.097656-48.949219.191406h-.269531c-15.042969.097657-31.140626.191407-46.910157.199219l-1.789062.003906-.199219-1.777344c-.78125-6.964843-.949219-14.726562 3.699219-19.519531 4.144531-4.253906 10.980469-4.828125 17.117187-4.828125.773438 0 1.550782.007813 2.324219.023438l226.605469 3.757812c6.980468.117188 13.585937.566406 17.773437 4.707032 5.25 5.191406 4.371094 14.0625 3.019531 21.214843l-.328124 1.742188zm0 0" fill="#bfc7d8"/><path d="m310.882812 331.445312c-6.003906-.167968-11.996093-.304687-17.988281-.445312l-2.320312-.050781.058593-2.011719c.160157-5.761719-2.902343-11.734375-7.996093-15.585938-4.375-3.3125-10.238281-5.238281-16.964844-5.570312-.765625-.035156-1.53125-.050781-2.296875-.050781-5.007812 0-10.136719.765625-14.257812 1.382812l-.753907.113281-.640625-.417968c-.527344-.347656-1.125-.703125-1.769531-1.0625-7.820313-4.292969-16.945313-5.148438-25.617187-5.652344-9.007813-.53125-18.171876-.800781-27.238282-.800781-18.769531 0-37.6875 1.144531-56.234375 3.398437l-1.300781.15625-2.273438-3.859375 1.703126-1.019531c9.054687-5.421875 20.203124-8.941406 33.136718-10.449219 5.5625-.648437 11.675782-.964843 18.691406-.964843 6.722657 0 13.410157.28125 19.875.554687l76.457032 3.179687c8.683594.363282 16.328125 1.03125 21.894531 5.53125 3.914063 3.148438 6.660156 8.351563 7.734375 14.640626.910156 5.417968.609375 10.964843.152344 17.132812l-.140625 1.90625zm0 0" fill="#f9d889"/><path d="m139.992188 328.535156c.820312-5.632812.210937-11.675781-1.765626-17.476562l-.796874-2.34375 2.460937-.285156c17.589844-2.042969 35.515625-3.078126 53.277344-3.078126 8.964843 0 18.023437.261719 26.929687.785157 8.199219.484375 16.804688 1.28125 23.910156 5.171875 5.75 3.164062 11.433594 9.671875 11.179688 17.09375l-.066406 1.953125-5.230469-.058594c-4.421875-.046875-8.832031-.097656-13.238281-.121094-7.464844-.046875-15.046875-.074219-22.542969-.074219-23.820313 0-48.078125.246094-72.097656.722657l-2.359375.046875zm0 0" fill="#f9d889"/><path d="m284.527344 330.8125c-7.816406-.160156-15.667969-.289062-23.332032-.386719l-2.011718-.027343.035156-2.011719c.082031-4.351563-1.5-8.953125-4.449219-12.957031l-2.046875-2.777344 3.425782-.394532c2.71875-.316406 5.097656-.46875 7.273437-.46875.683594 0 1.367187.015626 2.042969.046876 4.121094.203124 10.015625 1.191406 14.714844 4.753906 4.082031 3.085937 6.53125 7.792968 6.390624 12.285156l-.0625 1.976562zm0 0" fill="#ffd2bb"/><path d="m101.859375 330.0625c-.984375-7.226562-6.199219-13.800781-12.984375-16.355469-2.199219-.828125-4.554688-1.25-6.996094-1.25-1.367187 0-2.75.132813-4.101562.402344l-3.152344.621094.832031-3.101563c1.535157-5.714844 1.621094-11.75.25-17.457031l-.4375-1.808594 1.773438-.5625c2.507812-.800781 5.230469-1.464843 7.632812-2.046875 4.988281-1.222656 10.089844-2.476562 14.757813-4.851562l.445312-.226563c2.402344-1.226562 4.832032-2.464843 7.066406-2.464843.503907 0 .984376.0625 1.429688.1875 2.480469.691406 4.035156 3.027343 5.679688 5.5.832031 1.257812 1.589843 2.378906 2.476562 3.417968 1.773438 2.050782 3.886719 3.789063 5.75 5.324219 1.9375 1.601563 3.933594 3.25 5.523438 5.183594 6.507812 7.882812 9.554687 18.15625 8.152343 27.480469-.027343.179687-.019531.371093.023438.660156l.328125 2.238281-2.265625.050781c-10.339844.226563-20.480469.492188-30.140625.789063l-1.804688.058593zm0 0" fill="#ffd2bb"/><path d="m454.085938 337.578125c-5.980469-.464844-12.171876-.644531-17.632813-.804687-4.761719-.132813-9.046875-.265626-13.277344-.511719-34.054687-2-69.125-3.539063-104.234375-4.578125l-2.089844-.0625.15625-2.085938c.445313-6.019531.761719-11.914062-.21875-17.757812-.75-4.386719-2.289062-8.464844-4.445312-11.785156l-2.113281-3.25 128.984375 5.515624c4.175781.183594 8.800781.386719 12.367187 2.507813 4.859375 2.890625 6.929688 8.90625 7.242188 13.574219.394531 5.730468-1.101563 11.484375-2.546875 17.050781-.015625.042969-.03125.132813-.039063.28125l-.085937 2.066406zm0 0" fill="#5bd0fc"/><path d="m390 94.464844c-4.289062 0-8.226562-1.996094-11.089844-5.621094-3.652344-4.632812-5.332031-12.21875-.847656-18.726562 3.457031-4.992188 7.898438-6.042969 11.019531-6.042969.601563 0 1.203125.039062 1.777344.121093 5.785156.753907 10.878906 4.984376 12.972656 10.78125 2.601563 7.210938-1.246093 15.652344-8.394531 18.433594-1.785156.699219-3.617188 1.054688-5.4375 1.054688zm0 0" fill="#5bd0fc"/><path d="m377.128906 144.496094c-4.285156 0-8.226562-1.996094-11.089844-5.621094-3.65625-4.632812-5.335937-12.21875-.835937-18.726562 3.445313-4.988282 7.886719-6.035157 11.007813-6.035157.558593 0 1.144531.035157 1.746093.105469 5.824219.761719 10.914063 4.992188 13.003907 10.789062 2.609374 7.207032-1.238282 15.648438-8.394532 18.429688-1.796875.703125-3.625 1.058594-5.4375 1.058594zm0 0" fill="#5bd0fc"/><path d="m301.359375 196.433594c-4.292969 0-8.230469-1.996094-11.082031-5.621094-3.652344-4.625-5.332032-12.210938-.84375-18.722656 3.457031-4.996094 7.898437-6.042969 11.015625-6.042969.648437 0 1.21875.050781 1.734375.109375 5.832031.761719 10.925781 4.996094 13.015625 10.789062 2.597656 7.214844-1.246094 15.652344-8.394531 18.433594-1.792969.699219-3.628907 1.054688-5.445313 1.054688zm0 0" fill="#5bd0fc"/><path d="m233.496094 91.5c-4.542969 0-8.941406-.453125-13.070313-1.351562-11.898437-2.582032-22.398437-9.128907-28.8125-17.957032-6.847656-9.433594-9.003906-21.664062-5.632812-31.910156l.464843-1.40625 1.480469.03125c7.269531.160156 14.820313.300781 23.074219.429688l1.777344.027343.183594 1.765625c.886718 8.511719 5.601562 16.210938 12.609374 20.589844 4.066407 2.542969 8.804688 3.886719 13.6875 3.886719 4.1875 0 8.253907-1.011719 11.765626-2.925781 7.632812-4.148438 12.476562-12.355469 12.335937-20.910157l-.03125-2.03125h2.03125c8.558594-.011719 17.226563-.050781 25.773437-.121093l2.390626-.019532-.402344 2.355469c-.046875.265625-.046875.511719-.003906.742187 1.863281 9.78125-1.808594 21.09375-9.578126 29.507813-6.703124 7.246094-16.226562 12.664063-28.308593 16.117187-7.390625 2.109376-14.703125 3.179688-21.734375 3.179688zm0 0" fill="#5bd0fc"/><path d="m186.171875 196.433594c-1.808594 0-3.640625-.355469-5.445313-1.054688-5.511718-2.144531-9.214843-7.648437-9.214843-13.695312 0-1.648438.273437-3.246094.820312-4.742188 2.085938-5.789062 7.183594-10.023437 12.980469-10.78125.582031-.074218 1.175781-.113281 1.769531-.113281 3.117188 0 7.5625 1.046875 11.015625 6.042969 4.488282 6.511718 2.808594 14.097656-.847656 18.726562-2.855469 3.621094-6.792969 5.617188-11.078125 5.617188zm0 0" fill="#5bd0fc"/><path d="m110.410156 144.496094c-1.808594 0-3.640625-.355469-5.445312-1.058594-5.515625-2.144531-9.222656-7.648438-9.222656-13.691406 0-1.621094.277343-3.21875.828124-4.742188 2.089844-5.792968 7.179688-10.023437 12.972657-10.78125.585937-.074218 1.175781-.113281 1.757812-.113281 3.125 0 7.574219 1.046875 11.023438 6.039063 4.5 6.507812 2.824219 14.09375-.835938 18.726562-2.863281 3.625-6.796875 5.621094-11.078125 5.621094zm0 0" fill="#5bd0fc"/><path d="m97.535156 94.464844c-1.808594 0-3.640625-.355469-5.441406-1.054688-5.511719-2.144531-9.214844-7.652344-9.214844-13.707031 0-1.644531.277344-3.234375.824219-4.730469 2.085937-5.792968 7.183594-10.023437 12.976563-10.78125.566406-.078125 1.164062-.117187 1.769531-.117187 3.121093 0 7.5625 1.050781 11.015625 6.042969 4.484375 6.507812 2.808594 14.09375-.84375 18.726562-2.863282 3.625-6.800782 5.621094-11.085938 5.621094zm0 0" fill="#5bd0fc"/><path d="m388.398438 505.929688c-.773438 0-1.582032-.011719-2.417969-.035157l-170.230469-4.261719c-8.183594-.207031-16.519531-.457031-24.570312-.707031-18.742188-.578125-38.125-1.171875-57.597657-1.171875-6.265625 0-12.441406.066406-18.359375.191406-.175781.003907-.359375.007813-.546875.007813-5.414062 0-10.46875-2.070313-13.871093-5.675781-3.148438-3.332032-4.605469-7.640625-4.207032-12.457032.222656-2.8125 1.632813-6.53125 4.886719-7.722656 1.996094-.730468 4.3125-.742187 6.554687-.75h4.53125c15.554688 0 31.324219-.089844 46.574219-.175781l2.875-.015625c15.277344-.09375 32.597657-.203125 49.515625-.203125 22.773438 0 41.59375.1875 59.222656.59375 39.042969.890625 78.574219 2.730469 117.492188 5.472656.167969.011719.539062.023438 1.042969.039063l1.207031.039062c1.730469.039063 6.09375.160156 8.707031.375l1.355469.113282.394531 1.300781c1.160157 3.835937 2.222657 7.941406 2.101563 11.9375-.113282 3.902343-1.667969 8.925781-5.683594 11.320312-2.660156 1.570313-5.886719 1.785157-8.976562 1.785157zm0 0" fill="#939baa"/><path d="m263.324219 35.675781c-38.773438 0-77.921875-.664062-116.351563-1.972656-4.65625-.15625-9.472656-.316406-13.777344-2.078125-4.355468-1.773438-7.492187-5.292969-7.988281-8.972656-.671875-5.101563 3.382813-9.621094 7.433594-11.664063 4.890625-2.476562 10.769531-2.769531 15.960937-3.03125 17.191407-.863281 34.789063-1.441406 52.328126-1.710937 7.871093-.125 15.886718-.1875 23.8125-.1875 22.804687 0 45.839843.511718 68.46875 1.527344 16.171874.726562 31.929687 1.777343 46.550781 2.804687l.554687.039063c5.617188.386718 13.292969.914062 16.398438 4.855468.5.644532 2.015625 2.578125 1.269531 7.027344-.734375 4.355469-4.570313 8.46875-9.769531 10.484375-5.082032 1.957031-10.691406 2.070313-16.121094 2.1875-22.746094.460937-45.871094.691406-68.769531.691406zm0 0" fill="#939baa"/><path d="m239.273438 61.519531c-4.101563 0-8.203126-1.152343-11.554688-3.25-5.617188-3.507812-9.574219-9.6875-10.585938-16.523437l-.34375-2.320313 2.347657.027344c12.648437.160156 25.488281.25 38.167969.269531l1.949218.003906.046875 1.949219c.167969 7.011719-3.9375 14.019531-10.214843 17.433594-2.894532 1.578125-6.289063 2.410156-9.8125 2.410156zm0 0" fill="#939baa"/><path d="m27.484375 180.761719c.90625.378906 1.832031.664062 2.765625.863281.660156 13.820312 3.835938 27.734375 9.242188 40.480469-6.230469 7.878906-8.859376 18.675781-6.855469 28.519531.386719 1.910156 2.070312 3.226562 3.945312 3.226562.265625 0 .535157-.027343.808594-.082031 2.179687-.445312 3.589844-2.570312 3.148437-4.753906-1.597656-7.851563.636719-16.5 5.835938-22.601563 6.046875 1.726563 11.417969 5.570313 14.960938 10.789063.78125 1.148437 2.050781 1.765625 3.339843 1.765625.78125 0 1.570313-.226562 2.261719-.699219 1.84375-1.25 2.320312-3.757812 1.070312-5.597656-4.992187-7.347656-12.765624-12.59375-21.425781-14.515625-4.867187-11.730469-7.714843-24.488281-8.289062-37.152344.207031-.082031.417969-.152344.621093-.246094 4.023438-1.84375 6.699219-5.351562 8.652344-7.910156 17.546875-23.011718 33.816406-47.363281 48.371094-72.386718.550781.046874 1.101562.082031 1.648438.082031 6.027343-.003907 11.703124-2.761719 15.792968-7.941407.625-.792968 1.175782-1.621093 1.683594-2.46875.011719 0 .023438.003907.035156.003907.285156 0 .578125-.03125.871094-.09375l53.820312-11.871094-52.765624 29.730469c-.359376.203125-.65625.460937-.925782.742187-2.320312-.597656-4.785156-.757812-7.328125-.429687-8.019531 1.039062-15.046875 6.820312-17.902343 14.734375-3.472657 9.609375 1.128906 20.757812 10.113281 25.339843.050781.132813.089843.269532.15625.398438 6.449219 12.636719 12.621093 25.921875 18.585937 38.765625 5.996094 12.914063 12.199219 26.269531 18.71875 39.039063.507813.988281 1.398438 1.726562 2.464844 2.035156.371094.109375.75.160156 1.128906.160156.710938 0 1.417969-.1875 2.042969-.554688l5.292969-3.117187 24.121094 35.867187c.777343 1.15625 2.050781 1.78125 3.347656 1.78125.773437 0 1.554687-.222656 2.246094-.6875 1.847656-1.242187 2.339843-3.746093 1.097656-5.59375l-1.910156-2.839843 4.953124-3.390625c1.835938-1.257813 2.308594-3.765625 1.050782-5.601563-1.257813-1.839843-3.765625-2.308593-5.605469-1.050781l-4.898437 3.351562-3.800782-5.652343 6.082032-4.683594c1.765624-1.359375 2.09375-3.890625.734374-5.65625-1.359374-1.761719-3.890624-2.089844-5.65625-.734375l-5.671874 4.367188-9.128907-13.570313 6.621094-3.898437c1.808594-1.0625 2.5-3.332032 1.59375-5.21875-11.367187-23.671876-24.285156-46.898438-38.402344-69.050782.03125-.039062.066407-.078125.101563-.121094 2.257812-2.859374 3.734375-6.105468 4.414062-9.457031.332032-.085937.660156-.21875.972656-.394531l71.632813-40.628906-25.023437 68.757812c-.148438.40625-.207032.820313-.222657 1.226563-5.15625 2.523437-9.34375 7.085937-11.390625 12.75-3.695312 10.230469 1.757813 22.203125 11.902344 26.148437 2.5625.992188 5.152344 1.480469 7.679688 1.480469.8125 0 1.613281-.054687 2.402343-.152344l16.742188 25.339844-11.742188 10.582031c-.949219.855469-1.4375 2.113282-1.3125 3.386719s.847657 2.414063 1.945313 3.070313l20.128906 12.011718c.648438.386719 1.359375.570313 2.0625.570313 1.375 0 2.710938-.699219 3.464844-1.964844 1.140625-1.914063.515625-4.386719-1.394532-5.53125l-15.4375-9.210937 10.105469-9.109376c.09375-.039062.183594-.058593.273438-.101562l9.375-4.671875-.148438 20.445313c-.015625 2.226562 1.777344 4.042968 4 4.058593h.03125c2.214844 0 4.015625-1.785156 4.03125-4l.199219-27.011719c.007812-1.402343-.707031-2.707031-1.898438-3.449218-1.191406-.742188-2.675781-.8125-3.929687-.1875l-13.117187 6.53125-15.550782-23.539063c2.054688-1.273437 3.9375-2.945312 5.566406-5.007812 6-7.597657 6.46875-17.894531 1.210938-25.710938.175781-.273437.328125-.5625.4375-.886719l23.707031-70.109374c.0625-.1875.097657-.378907.132813-.570313 1.96875.164063 3.960937.269531 5.988281.269531 3.238281 0 6.546875-.222656 9.890625-.644531 10.460938 25.664063 23.195312 50.59375 37.871094 74.097656.320312.511719.738281.921875 1.214844 1.234375-3.160157 7.234375-2.105469 15.777344 3.0625 22.320313 1.628906 2.0625 3.511718 3.734375 5.566406 5.007812l-15.550782 23.539063-13.113281-6.53125c-1.253906-.625-2.742187-.554688-3.933593.1875-1.1875.742187-1.90625 2.046875-1.898438 3.449218l.199219 27.011719c.019531 2.214844 1.820312 4 4.03125 4h.03125c2.222656-.015625 4.015625-1.832031 4-4.058593l-.148438-20.445313 9.375 4.671875c.089844.042969.179688.0625.269531.101562l10.109376 9.109376-15.4375 9.210937c-1.910157 1.144531-2.535157 3.617187-1.394532 5.53125.753906 1.265625 2.089844 1.964844 3.464844 1.964844.703125 0 1.414062-.183594 2.0625-.570313l20.128906-12.011718c1.097656-.65625 1.820313-1.796876 1.945313-3.070313s-.363281-2.53125-1.3125-3.386719l-11.742188-10.582031 16.742188-25.339844c.792969.097657 1.59375.152344 2.402343.152344 2.523438 0 5.117188-.484375 7.679688-1.480469 10.148438-3.945312 15.597656-15.917968 11.902344-26.148437-2.113282-5.847657-6.503906-10.527344-11.890625-12.992188-.070313-.21875-.148438-.441406-.257813-.652343l-34.628906-67.65625 82.464844 38.234374c.019531.007813.039062.011719.0625.023438.535156 3.816406 2.074218 7.550781 4.632812 10.792969.035156.039062.070313.078125.101563.117187-14.113281 22.148438-27.03125 45.371094-38.402344 69.050782-.90625 1.890624-.214844 4.160156 1.589844 5.21875l6.625 3.898437-9.128907 13.574219-5.671874-4.367188c-1.765626-1.359375-4.296876-1.03125-5.65625.734375-1.359376 1.761719-1.03125 4.292969.730468 5.652344l6.085938 4.683594-3.800782 5.652343-4.898437-3.351562c-1.839844-1.257812-4.347656-.785156-5.605469 1.050781-1.257812 1.839844-.785156 4.347657 1.050782 5.605469l4.953124 3.386719-1.910156 2.839843c-1.242187 1.847657-.753906 4.355469 1.09375 5.597657.691406.464843 1.472656.6875 2.246094.6875 1.296875 0 2.570312-.625 3.351562-1.785157l24.117188-35.863281 5.292969 3.113281c.628906.371094 1.335937.558594 2.046875.558594.378906 0 .757812-.054687 1.125-.160156 1.070312-.3125 1.960937-1.050781 2.464844-2.039062 6.519531-12.765626 12.71875-26.117188 18.714843-39.027344 5.96875-12.851563 12.140625-26.136719 18.59375-38.777344.066407-.128906.101563-.265625.152344-.398438 8.984375-4.582031 13.585937-15.730468 10.117187-25.339843-2.859374-7.914063-9.886718-13.695313-17.90625-14.734375-3.503906-.453125-6.859374.011718-9.890624 1.289062-.054688-.019531-.101563-.050781-.15625-.066406-27.195313-9.019531-53.449219-20.992188-78.105469-35.59375.4375.230469.921875.390625 1.445312.449219l75.742188 8.183593c.148437.015626.292969.027344.4375.027344.472656 0 .925781-.09375 1.351562-.246094.589844 3.664063 2.105469 7.234376 4.566407 10.347657 4.089843 5.179687 9.765624 7.9375 15.792968 7.9375.546875 0 1.097656-.03125 1.648438-.078125 14.550781 25.019531 30.824218 49.375 48.371094 72.386718 1.953124 2.558594 4.628906 6.066407 8.648437 7.910157.203125.09375.417969.164062.625.246093-.578125 12.664063-3.425781 25.421876-8.289063 37.152344-8.660156 1.921875-16.4375 7.167969-21.425781 14.511719-1.25 1.84375-.773437 4.351563 1.066407 5.601563.695312.472656 1.484374.699218 2.261718.699218 1.292969 0 2.558594-.621094 3.339844-1.769531 3.546875-5.214844 8.917969-9.058594 14.964844-10.785156 5.195312 6.101562 7.433594 14.75 5.835937 22.601562-.441406 2.179688.96875 4.308594 3.148438 4.753907.273437.054687.542969.082031.808593.082031 1.875 0 3.558594-1.320313 3.945313-3.230469 2.003906-9.839844-.628906-20.636719-6.855469-28.515625 5.40625-12.746094 8.582032-26.664063 9.242188-40.480469.933594-.199218 1.859375-.484375 2.765625-.863281 3.785156-1.597656 6.691406-4.578125 7.976562-8.1875.421875-1.179687.269531-2.492187-.414062-3.546875-18.078125-27.863281-37.84375-55.070312-58.746094-80.910156 2.082031-4.714844 2.488281-10.171875.671875-15.207032-2.855469-7.910156-9.882812-13.691406-17.902344-14.730468-4.230468-.550782-8.246094.230468-11.730468 2.179687l-80.464844-8.300781c.394531-3.535156.292968-7.074219-.359375-10.511719 11.054687-.113281 22.09375-.28125 33.101562-.5 5.6875-.117187 12.136719-.246093 18.21875-2.597656 7.277344-2.8125 12.472657-8.609375 13.566407-15.132813.789062-4.722656-.046876-8.6875-2.492188-11.785156-4.773438-6.050781-14.003906-6.6875-20.746094-7.15625l-.535156-.035156c-14.730469-1.03125-30.582031-2.085938-46.710938-2.808594-30.726562-1.375-61.898437-1.832031-92.644531-1.351562-17.441406.273437-35.109375.851562-52.511719 1.71875-5.515624.273437-12.371093.617187-18.421874 3.679687-7.207032 3.648438-11.609376 10.992188-10.699219 17.863281.773437 5.882813 5.261719 11.171876 11.703125 13.804688 5.292968 2.160156 10.910156 2.351562 15.863281 2.519531 10.902344.371094 21.832031.683594 32.78125.949219-.59375 2.3125-.964844 4.683594-1.117187 7.085938-.09375.015624-.183594.011718-.277344.035156l-67.085938 14.6875c-.082031.019531-.160156.054687-.242187.078125-4.113281-3.558594-9.332031-5.148438-14.925781-4.425781-8.015626 1.039062-15.042969 6.824218-17.902344 14.734374-1.816406 5.035157-1.410156 10.492188.671875 15.207032-20.902344 25.835937-40.664063 53.042968-58.746094 80.90625-.683594 1.054687-.835937 2.367187-.414063 3.550781 1.285157 3.605469 4.195313 6.589844 7.976563 8.183594zm70.964844-55.078125c1.839843-5.097656 6.296875-8.820313 11.355469-9.472656 2.527343-.328126 7.300781-.105469 10.878906 5.074218 3.914062 5.667969 2.433594 12.296875-.765625 16.347656-3.585938 4.539063-8.902344 6.011719-14.230469 3.941407-6.167969-2.394531-9.484375-9.671875-7.238281-15.890625zm45.242187 93.320312c-5.753906-11.476562-11.289062-23.390625-16.65625-34.945312-5.136718-11.066406-10.441406-22.433594-15.953125-33.503906 3.125-.101563 6.144531-.941407 8.882813-2.484376 13.039062 20.542969 25.039062 42.003907 35.699218 63.890626zm-13.132812-94.886718c-.589844-2.601563-1.65625-5.117188-3.242188-7.414063-.933594-1.351563-1.980468-2.546875-3.113281-3.59375l63.253906-35.640625c.132813-.074219.246094-.171875.367188-.257812 2.667969 3.371093 5.863281 6.417968 9.453125 9.066406zm65.121094 65.457031c-3.582032 4.535156-8.898438 6.011719-14.226563 3.941406-6.171875-2.398437-9.488281-9.675781-7.242187-15.890625 1.84375-5.101562 6.300781-8.824219 11.355468-9.476562 2.527344-.328126 7.300782-.105469 10.882813 5.078124 3.910156 5.667969 2.433593 12.292969-.769531 16.347657zm1.242187-26.847657c-2.921875-1.792968-6.242187-2.742187-9.761719-2.742187l24.09375-66.214844c2.554688.941407 5.1875 1.71875 7.890625 2.308594.097657.019531.195313.035156.292969.054687zm54.601563-67.222656c1.785156-.398437 3.578124-.84375 5.375-1.355468 2.507812-.71875 4.921874-1.515626 7.230468-2.394532l34.949219 68.273438c-4.46875.296875-8.558594 2.136718-11.84375 5.320312-13.761719-22.207031-25.761719-45.683594-35.710937-69.84375zm33.074218-15.859375c24.199219 14.507813 49.933594 26.523438 76.597656 35.75-.335937.421875-.664062.855469-.980468 1.308594-1.398438 2.027344-2.398438 4.226563-3.023438 6.507813l-80.777344-37.457032c2.984376-1.847656 5.710938-3.886718 8.183594-6.109375zm28.722656 97.980469c2.246094 6.214844-1.070312 13.492188-7.242187 15.890625h.003906c-5.328125 2.070313-10.648437.597656-14.230469-3.941406-3.203124-4.054688-4.679687-10.679688-.765624-16.347657 2.953124-4.277343 6.71875-5.175781 9.367187-5.175781.558594 0 1.070313.042969 1.511719.097657 5.054687.65625 9.511718 4.375 11.355468 9.476562zm47.171876 6.441406c-5.367188 11.554688-10.898438 23.460938-16.652344 34.9375l-11.972656-7.046875c10.664062-21.886719 22.664062-43.351562 35.699218-63.890625 2.738282 1.546875 5.757813 2.386719 8.882813 2.488282-5.511719 11.070312-10.816407 22.441406-15.957031 33.511718zm15.722656-67.957031c.558594 0 1.070312.042969 1.511718.101563 5.058594.652343 9.515626 4.375 11.355469 9.472656 2.246094 6.21875-1.070312 13.496094-7.238281 15.894531-5.328125 2.066406-10.644531.59375-14.230469-3.941406-3.199219-4.054688-4.679687-10.683594-.765625-16.347657 2.953125-4.277343 6.722656-5.179687 9.367188-5.179687zm-85.945313-42.472656c0-.003907.003907-.003907.003907-.007813.042968.027344.078124.058594.121093.082032-.042969-.023438-.085937-.050782-.125-.074219zm166.644531 99.695312c-1.707031.71875-3.503906.753907-4.933593.097657-2.03125-.929688-3.671875-2.941407-5.601563-5.472657-16.933594-22.207031-32.65625-45.683593-46.777344-69.800781 1.632813-.855469 3.113282-1.933594 4.425782-3.175781 19.695312 24.46875 38.359375 50.148437 55.515625 76.4375-.65625.796875-1.558594 1.460937-2.628907 1.914062zm-67.832031-107.253906c.5625 0 1.070313.039063 1.511719.097656 5.058594.65625 9.515625 4.375 11.355469 9.476563 2.246093 6.214844-1.070313 13.492187-7.238281 15.890625 0 0 0 0-.003907 0-5.320312 2.070312-10.640625.59375-14.226562-3.941407-3.199219-4.054687-4.679688-10.679687-.765625-16.347656 2.953125-4.277344 6.71875-5.175781 9.367187-5.175781zm-16.648437 1.617187c-1.347656 2.207032-2.265625 4.582032-2.742188 7.03125-.324218-.128906-.664062-.230468-1.027344-.269531l-73.722656-7.964843c1.113282-2.117188 2.03125-4.292969 2.761719-6.503907zm-238.484375-37.914062c-3.710938-1.515625-6.363281-4.417969-6.753907-7.394531-.523437-3.9375 2.796876-7.816407 6.34375-9.613281 4.523438-2.289063 10.183594-2.570313 15.183594-2.820313 17.3125-.863281 34.886719-1.4375 52.238282-1.710937 30.585937-.476563 61.589843-.023438 92.15625 1.347656 16.039062.71875 31.832031 1.765625 46.507812 2.792968l.542969.039063c4.941406.339844 12.410156.859375 14.972656 4.105469.363281.460937 1.46875 1.867187.867187 5.460937-.613281 3.667969-3.960937 7.179688-8.519531 8.945313-4.757812 1.835937-10.207031 1.945312-15.476562 2.050781-61.371094 1.238281-123.605469.808594-184.972657-1.277344-4.488281-.152343-9.128906-.308593-13.089843-1.925781zm114.179687 27.574219c-5.789062 3.152343-13.5625 2.839843-19.34375-.777344-5.175781-3.234375-8.753906-8.902344-9.675781-15.125 12.726563.164063 25.460937.25 38.191406.269531.144531 6.230469-3.527343 12.5625-9.171875 15.632813zm-37.164062-16.023438c.941406 9.023438 6.027344 17.382813 13.542968 22.085938 4.453126 2.78125 9.617188 4.1875 14.75 4.1875 4.429688 0 8.832032-1.050781 12.722657-3.164063 8.296875-4.511718 13.53125-13.5 13.382812-22.707031 8.601563-.007813 17.199219-.050781 25.789063-.121094-.082032.464844-.09375.953125 0 1.445313 1.753906 9.183594-1.730469 19.832031-9.082032 27.785156-6.449218 6.96875-15.664062 12.203125-27.390624 15.550781-11.902344 3.402344-23.597657 4.023438-33.828126 1.804688-11.425781-2.480469-21.492187-8.746094-27.625-17.1875-6.507812-8.964844-8.527343-20.441407-5.347656-30.101563 7.691406.164063 15.386719.304688 23.085938.421875zm-32.214844 14.628907c.527344 3.84375 1.578125 7.65625 3.148438 11.304687-.078126.011719-.15625.011719-.238282.027344l-63.574218 14.023437c.460937-3.957031-.167969-7.988281-1.910157-11.65625zm-93.167969 19.691406c1.839844-5.101563 6.300781-8.820313 11.355469-9.476563.441406-.058593.953125-.097656 1.511719-.097656 2.648437 0 6.414062.902344 9.367187 5.175781 3.914063 5.667969 2.4375 12.296875-.765625 16.351563-3.585937 4.535156-8.90625 6.007812-14.226562 3.941406-6.171875-2.398437-9.488281-9.679687-7.242188-15.894531zm-2.078125 19.328125c1.316406 1.242187 2.792969 2.320312 4.425782 3.175781-14.121094 24.117188-29.839844 47.59375-46.777344 69.800781-1.929688 2.53125-3.566406 4.539063-5.601563 5.472657-1.429687.65625-3.226562.621093-4.933593-.097657-1.070313-.453125-1.972657-1.117187-2.628907-1.914062 17.15625-26.292969 35.820313-51.972657 55.515625-76.4375zm0 0" fill="#231f20"/><path d="m482.6875 344.332031c11.746094-16.457031 13.707031-39.28125 4.765625-57.460937-1.253906-2.546875-3.078125-5.773438-6.078125-8.117188-3.546875-2.769531-8.074219-3.597656-11.8125-2.164062-4.246094 1.628906-6.457031 5.566406-7.917969 8.171875l-7.996093 14.226562c-4.664063-2.378906-9.90625-2.605469-14.175782-2.789062l-129.4375-5.539063c-1.160156-.042968-2.210937.398438-2.972656 1.140625-7.367188-4.878906-16.695312-5.277343-23.65625-5.570312l-76.457031-3.179688c-12.925781-.539062-26.292969-1.097656-39.523438.449219-14.167969 1.648438-26.359375 5.585938-36.289062 11.710938-1.59375-1.664063-3.3125-3.097657-4.992188-4.488282-1.859375-1.535156-3.613281-2.988281-5.023437-4.625-.664063-.769531-1.316406-1.753906-2.007813-2.796875-1.980469-2.984375-4.445312-6.699219-9.117187-7.996093-4.894532-1.355469-9.320313.90625-12.875 2.722656l-.4375.222656c-4.0625 2.066406-8.621094 3.179688-13.445313 4.359375-5.703125 1.394531-11.597656 2.835937-16.804687 5.996094-8.71875 5.300781-17.898438 12.328125-19.867188 24.308593-1.058594 6.4375.265625 13.261719 3.546875 18.914063-7.347656.335937-14.757812.695313-22.042969 1.074219-5.113281.265625-10.910156.566406-16.3125 2.984375-6.527343 2.925781-10.941406 8.761719-11.242187 14.867187-.390625 7.859375 5.570313 14.03125 11.644531 16.660156 5.964844 2.578126 12.386719 2.605469 18.058594 2.628907l150.210938.640625-.597657 67.15625-43.5-.722656c-8.289062-.136719-17.65625.25-23.878906 6.644531-6.472656 6.65625-6.226563 16.65625-5.492187 23.527343-2.382813.019532-4.980469.164063-7.574219 1.117188-5.921875 2.171875-8.445313 8.101562-8.839844 12.925781-.523437 6.480469 1.550781 12.558594 5.84375 17.109375 4.695313 4.976563 11.625 7.75 18.972656 7.566406 25.171875-.574218 50.824219.214844 75.628907.972657 8.0625.25 16.402343.503906 24.605468.710937l170.226563 4.261719c.824219.019531 1.710937.042969 2.640625.042969 3.746094 0 8.167968-.363282 12.007812-2.652344 5.121094-3.054688 8.433594-9.3125 8.644532-16.335938.175781-5.816406-1.5625-11.34375-3.09375-16.222656-1.058594-3.363281-3.804688-3.4375-15.375-3.757812-.328126-.007813-.617188-.015625-.878907-.023438 1.644531-9.25 1.835938-19.015625-4.890625-25.664062-5.789062-5.71875-14.007812-6.324219-21.933594-6.457032l-55.152343-.917968 3.136719-68.730469 139.320312.59375c1.347656.007813 3.097656.105469 5.125.222656 2.699219.152344 5.839844.332031 9.105469.332031 10.21875 0 21.648437-1.757812 24.578125-11.5625 1.109375-3.714843.5625-7.550781-1.589844-11.09375-1.238281-2.046874-2.910156-3.839843-4.78125-5.394531zm-14.015625-55.621093c1.1875-2.113282 2.367187-4.050782 3.777344-4.59375 1.085937-.414063 2.671875-.015626 3.964843.992187 1.710938 1.335937 2.929688 3.546875 3.804688 5.320313 7.726562 15.707031 5.941406 35.460937-4.359375 49.582031-2.820313-1.355469-5.5625-2.242188-7.664063-2.644531-1.953124-.375-3.929687-.675782-5.921874-.941407 1.460937-5.644531 3.050781-11.996093 2.605468-18.496093-.359375-5.269532-2.132812-10.027344-4.945312-13.664063zm-18.109375 17.777343c4.191406 2.488281 5.984375 7.824219 6.273438 11.992188.367187 5.378906-1.085938 10.984375-2.492188 16.402343-.058594.234376-.089844.46875-.105469.703126-5.910156-.460938-11.875-.644532-17.730469-.8125-4.582031-.132813-8.914062-.257813-13.21875-.511719-34.574218-2.03125-69.433593-3.550781-104.285156-4.578125.433594-5.933594.800782-12.050782-.246094-18.234375-.800781-4.734375-2.4375-9.003907-4.738281-12.546875l125.109375 5.351562c3.875.167969 8.269532.355469 11.433594 2.234375zm-282.203125-14.980469c12.597656-1.46875 25.644531-.929687 38.253906-.402343l76.457031 3.183593c8.316407.34375 15.617188.96875 20.722657 5.085938 3.539062 2.855469 6.03125 7.621094 7.011719 13.417969.910156 5.363281.539062 11.085937.132812 16.652343-6.105469-.167968-12.207031-.308593-18.308594-.445312.179688-6.421875-3.128906-12.964844-8.792968-17.246094-4.699219-3.558594-10.945313-5.621094-18.066407-5.96875-5.808593-.285156-11.46875.527344-16.945312 1.355469-.617188-.402344-1.25-.785156-1.902344-1.144531-8.203125-4.496094-17.574219-5.382813-26.472656-5.90625-27.890625-1.636719-56.09375-.757813-83.828125 2.613281-.195313-.34375-.394532-.679687-.601563-1.015625 8.808594-5.277344 19.664063-8.703125 32.339844-10.179688zm-28.238281 18.902344c26.441406-3.0625 53.289062-3.832031 79.855468-2.269531 7.980469.46875 16.335938 1.234375 23.070313 4.925781 5.207031 2.855469 10.363281 8.734375 10.140625 15.269532-5.515625-.0625-11.03125-.125-16.53125-.160157-31.425781-.207031-63.066406.015625-94.6875.644531.882812-6.039062.203125-12.390624-1.847656-18.410156zm116.253906 3.832032c3.023438-.347657 6.046875-.550782 9-.40625 3.832031.1875 9.300781 1.09375 13.597656 4.34375 3.5625 2.695312 5.71875 6.828124 5.59375 10.632812-7.789062-.15625-15.570312-.285156-23.34375-.390625.085938-4.890625-1.679687-9.882813-4.847656-14.179687zm-171.222656-23.800782c5.058594-1.234375 10.292968-2.515625 15.1875-5.003906l.449218-.226562c2.550782-1.304688 5.183594-2.652344 7.054688-2.132813 1.652344.457031 2.820312 2.074219 4.550781 4.683594.796875 1.203125 1.625 2.445312 2.617188 3.601562 1.855469 2.152344 3.960937 3.894531 5.996093 5.574219 1.960938 1.621094 3.8125 3.15625 5.257813 4.90625 6.148437 7.453125 9.03125 17.136719 7.714844 25.910156-.066407.429688-.042969.84375.023437 1.25-10.058594.222656-20.113281.484375-30.160156.792969-1.082031-7.953125-6.753906-15.128906-14.265625-17.964844-3.867187-1.457031-8.128906-1.734375-12.1875-.941406 1.613281-5.992187 1.722656-12.367187.257813-18.4375 2.382812-.757813 4.90625-1.375 7.503906-2.011719zm-30.628906 23.78125c1.402343-8.535156 8.265624-13.910156 15.589843-18.410156 1.316407 7.226562-.164062 15.054688-4.15625 21.183594-1.109375 1.699218-.78125 3.957031.761719 5.273437 1.546875 1.3125 3.828125 1.277344 5.328125-.089843 3.875-3.53125 9.777344-4.65625 14.683594-2.804688 4.546875 1.714844 8.039062 5.914062 8.988281 10.664062-12.167969.398438-24.308594.875-36.425781 1.394532-.136719-.511719-.375-1.003906-.722657-1.445313-3.4375-4.382812-4.949218-10.273437-4.046874-15.765625zm246.605468 94.96875-113.015625 4.425782.179688-20.527344 113.59375-.515625zm97.90625 72.269532c1.148438 3.765624 2.136719 7.597656 2.027344 11.304687-.101562 3.371094-1.394531 7.675781-4.71875 9.65625-2.582031 1.539063-6.046875 1.578125-10.316406 1.472656l-170.226563-4.261719c-8.179687-.207031-16.507812-.460937-24.558593-.707031-18.910157-.582031-38.308594-1.175781-57.664063-1.175781-6.140625 0-12.28125.058594-18.398437.199219-5.097657.128906-9.789063-1.722657-12.921876-5.042969-2.746093-2.90625-4.015624-6.683594-3.671874-10.921875.195312-2.410156 1.378906-5.199219 3.582031-6.007813 1.71875-.632812 3.9375-.621093 6.074219-.628906 17.9375.019532 36.160156-.089844 53.785156-.195312 35.621094-.214844 72.457031-.4375 108.683594.394531 39 .890625 78.5 2.730469 117.402343 5.464844.3125.019531 1.167969.046875 2.316407.078125 1.695312.046875 6.058593.167968 8.605468.371094zm-19.820312-28.382813c4.359375 4.304687 3.859375 12.007813 2.453125 19.417969-36.757813-2.476563-73.984375-4.167969-110.773438-5.011719-36.339843-.832031-73.238281-.609375-108.917969-.394531-15.378906.089844-31.203124.183594-46.898437.191406-.746094-6.691406-.871094-13.753906 3.15625-17.894531 3.980469-4.089844 11.0625-4.320313 17.964844-4.203125l226.617187 3.765625c6.546875.105469 12.730469.503906 16.398438 4.128906zm-191.320313-15.101563.144531-16.285156 112.71875-4.417968-1.019531 22.410156c-.003906.050781.007813.097656.007813.152344zm114.359375-53.4375c-.089844-.003906-.175781-.027343-.265625-.027343-.007812 0-.015625 0-.019531 0l-113.601562.515625.125-14.308594 114.371093.484375zm179.082032-26.023437c-2.039063 6.828125-16.71875 5.988281-25.496094 5.488281-2.140625-.125-3.988282-.230468-5.550782-.238281l-420.035156-1.785156c-5.136718-.019531-10.445312-.042969-14.890625-1.96875-3.519531-1.519531-6.980469-5.050781-6.792969-8.859375.171876-3.53125 3.386719-6.519532 6.488282-7.910156 4.023437-1.800782 8.804687-2.050782 13.429687-2.289063 7.53125-.390625 15.199219-.765625 22.789063-1.109375 61.4375-2.792969 123.792968-4.007812 185.324218-3.609375 61.84375.40625 124.492188 2.449219 186.214844 6.074219 4.421875.261718 9.015625.394531 13.457032.523437 10.210937.296875 20.765624.601563 30.402343 2.449219 4.71875.90625 11.378907 4.464844 13.90625 8.628906.972657 1.609375 1.214844 3.070313.753907 4.605469zm0 0" fill="#231f20"/></svg>