<svg height="511pt" viewBox="-48 0 511 511.99979" width="511pt" xmlns="http://www.w3.org/2000/svg"><path d="m251.835938 267.324219c-.726563-8.757813-2.175782-17.496094-4.304688-25.976563-.515625-2.03125-1.125-4.238281-1.867188-6.742187l-.761718-2.566407h2.679687c.089844 0 .378907.007813.378907.007813 13.300781 0 26.664062-6.972656 34.050781-17.765625 1.265625-1.859375 2.402343-3.847656 3.503906-5.773438l.101563-.171874c2.832031-4.96875 5.507812-9.664063 10.050781-12.089844 3.269531-1.753906 7.007812-1.976563 9.898437-1.976563 1.667969 0 3.414063.085938 5.101563.171875 1.71875.089844 3.621093.191406 5.484375.191406 1.25 0 2.375-.042968 3.433594-.136718 15.253906-1.289063 28.316406-14.773438 29.128906-30.0625.085937-1.554688.054687-3.148438.027344-4.554688l-.003907-.117187c-.050781-3.515625-.101562-6.839844 1.230469-9.691407 1.738281-3.734374 5.660156-6.144531 9.453125-8.476562 1.394531-.855469 2.96875-1.820312 4.417969-2.867188 8.359375-6 13.8125-15.6875 14.585937-25.917968.785157-10.253906-3.125-20.664063-10.464843-27.851563-2.515626-2.457031-5.386719-4.527343-8.160157-6.53125-3.992187-2.871093-7.75-5.570312-10.421875-9.277343-2.097656-2.910157-3.40625-6.28125-4.796875-9.847657-1-2.578125-2.003906-5.175781-3.34375-7.679687-5.910156-11.035156-18.328125-18.449219-30.898437-18.449219-.414063 0-.828125.007813-1.242188.023437-4.625.171876-9.117187 1.269532-13.460937 2.328126-4.492188 1.101562-8.671875 2.128906-12.988281 2.253906-.320313.007812-.648438.015625-.972657.015625-5.863281 0-11.632812-1.554688-17.742187-3.203125-6.046875-1.632813-12.253906-3.3125-18.445313-3.3125-2.585937 0-4.984375.285156-7.320312.871094-3.804688.960937-7.246094 2.703124-10.574219 4.386718-3.613281 1.820313-7.023438 3.539063-10.742188 4.277344-1.464843.289062-2.984374.429688-4.648437.429688-3.953125 0-8.070313-.832032-12.054687-1.632813-2.015626-.40625-4.292969-.871094-6.558594-1.199219-2.910156-.433594-5.894532-.648437-8.867188-.648437-13.878906 0-27.597656 4.667969-38.632812 13.144531l-4.792969 3.683594 1.652344-5.816406c.871093-3.074219 1.886719-6.261719 3.015625-9.464844.183594-.523438.140625-1.09375-.125-1.609375l-.941406-1.839844 1.875-.878906c40.285156-18.921875 85.097656-28.921875 129.589843-28.921875.777344 0 1.546875.003906 2.324219.011718 23.5625.191407 43.324219 3.21875 60.417969 9.261719 20.753906 7.328125 37.742187 19.246094 49.125 34.46875 15.238281 20.351563 22.207031 49.101563 20.71875 85.460938-1.050781 25.53125-5.542969 46.328125-13.734375 63.574219-9.949219 20.988281-26.285156 37.273437-44.8125 44.679687-12.75 5.089844-26.855469 6.355469-40.492188 7.574219l-1.292968.117187c-3.417969.3125-6.949219.632813-10.402344 1.019531-13.714844 1.546876-29.558594 4.707032-43.070313 16.441407l-2.980469 2.585937zm0 0" fill="#b2eaf9"/><path d="m252.5 360.15625c-4.546875-7.183594-7.898438-14.917969-9.96875-22.992188-.042969-.179687-.132812-.371093-.261719-.566406l-.570312-.867187.382812-.964844c1.71875-4.351563 3.207031-8.691406 4.429688-12.902344 4.144531-14.261719 6.105469-29.226562 5.828125-44.488281l-.023438-1.398438 1.308594-.503906c.269531-.105468.5-.257812.6875-.453125 3.40625-3.480469 6.984375-6.335937 10.960938-8.75l2.226562-1.351562.730469 2.5c3.636719 12.421875 3.503906 27.214843-.40625 45.21875-1.464844 6.734375-3.328125 13.53125-5.128907 20.101562l-.132812.492188c-2.21875 8.050781-4.730469 17.171875-6.402344 26.222656l-.929687 5.023437zm0 0" fill="#696b77"/><path d="m254.140625 421.394531c-14.894531-13.242187-26.183594-30.105469-32.648437-48.769531l-.351563-1.011719.644531-.851562c5.984375-7.914063 11.203125-16.371094 15.507813-25.144531l2.074219-4.222657 1.605468 4.425781c2.957032 8.167969 7.082032 15.746094 12.257813 22.527344.097656.125.246093.257813.449219.394532l.996093.671874-.125 1.195313c-1.707031 16.195313-.738281 32.632813 2.871094 48.855469l1.347656 6.042968zm0 0" fill="#696b77"/><path d="m112.722656 427.632812c-4.429687 0-8.679687-.40625-12.992187-1.238281-8.113281-1.570312-12.851563-10.460937-17.03125-18.304687l-.34375-.644532c-.527344-.980468-1.039063-1.941406-1.546875-2.863281-5.242188-9.421875-9.625-19.464843-13.019532-29.839843-1.441406-4.402344-2.71875-8.945313-3.792968-13.503907l-.597656-2.519531 43.253906 1.011719c1.09375 0 2.003906-.886719 2.027344-1.976563.027343-1.125-.863282-2.0625-1.984376-2.085937l-44.097656-1.039063-.285156-1.613281c-1.523438-8.617187-2.195312-17.085937-1.992188-25.167969.335938-13.597656-10.890624-26.050781-24.515624-27.195312-.90625-.070313-1.753907-.105469-2.574219-.105469-2.324219 0-4.660157.230469-6.726563.433594l-.390625.035156c-1.933593.179687-3.757812.351563-5.613281.371094h-.125c-3.160156 0-8.902344-.574219-11.882812-4.410157-3.210938-4.140624-1.9375-10.011718.125-13.777343 2.058593-3.765625 5.152343-6.820313 8.425781-10.050781.777343-.769532 1.53125-1.523438 2.273437-2.277344 13.007813-13.230469 22.265625-29.980469 26.769532-48.429688 3.414062-14.003906 1.886718-26.359375.273437-39.441406-.695313-5.585938-1.410156-11.347656-1.726563-17.386719-1.464843-28.175781 6.828126-56.292969 23.347657-79.175781 9.292969-12.859375 21.453125-24.179688 35.171875-32.738281l1.339844-.824219c7.191406-4.503906 22.160156-13.878906 32.527343-13.878906.765625 0 1.503907.050781 2.195313.152344l2.363281.339843-.75 2.265625c-4.617187 14-9.878906 35.1875-2.265625 57.445313l.578125 1.691406-1.617187.765625c-8.296876 3.921875-17.703126 8.367188-25.84375 14.890625-9.148438 7.347656-15.199219 16.550781-17.027344 25.925781-2.765625 14.09375 3.636718 27.511719 9.492187 36.285156 7.378907 11.042969 16.398438 18.582032 26.085938 21.800782 3.90625 1.300781 8.128906 1.960937 12.550781 1.960937 7.886719 0 16.269531-2.128906 24.246094-6.15625l1.46875-.742187 1.011718 1.296875c10.574219 13.566406 17.664063 30.355469 19.953126 47.273437.039062.285156.152343.570313.351562.867188l1.507812 2.292968-2.644531.734376c-1.296875.359374-2.765625.753906-3.851562.972656-2.25.429687-6.890625 1.3125-8.625 5.109375-1.046875 2.289062-.601563 4.753906-.28125 6.558593l2.628906 14.515626c.535156 2.941406 1.34375 7.375 4.921875 9.722656 1.511719.992187 3.347656 1.472656 5.621094 1.472656 1.546875 0 3.019531-.222656 4.203125-.40625l16.625-2.617188c1.808593-.28125 4.273437-.664062 6.125-2.351562 3.308593-3.03125 2.460937-8.304688 2.183593-10.035156l-.214843-1.421875c-1.042969-6.769531-2.992188-19.386719-8.164063-23.042969-1.433594-1.015625-3.375-1.507812-5.9375-1.507812-2.183594 0-4.714844.347656-7.96875 1.101562l-2.644531.613281.199219-2.710937c.011718-.15625.011718-.289063-.003906-.398438-2.386719-17.589844-9.339844-34.320312-20.117188-48.398437l-1.308594-1.707031 1.800782-1.179688c4.183593-2.738281 8.390624-6.042969 12.859374-10.097656l1.625-1.476563 1.320313 1.753907c7.734375 10.296874 13.476563 22.320312 16.601563 34.765624.226562.902344 1.03125 1.535157 1.957031 1.535157.171875 0 .34375-.019531.523437-.0625.507813-.128907.949219-.457031 1.230469-.921875.277344-.464844.359375-1.011719.226563-1.539063-3.335938-13.273437-9.511719-26.054687-17.855469-36.949219l-1.070313-1.398437 1.25-1.238281c2.367188-2.347656 4.664063-4.714844 6.597656-6.71875l1.382813-1.433594 1.441406 1.382812c1.535157 1.476563 2.703125 2.625 3.773438 3.722657 18.164062 18.570312 31.253906 42.304687 37.859375 68.640625 6.605468 26.335937 6.269531 53.441406-.980469 78.386718-7.25 24.945313-21.484375 48.015626-41.164063 66.710938-1.488281 1.40625-3.105468 2.867188-5.09375 4.597656l-1.136718.992188-26.335938-17.070313c-2.585937-1.683593-3.589844-2.820312-3.589844-4.050781 0-.734375.285157-1.5 1.789063-3.4375l14.757813-18.964844 1.515624 1.023438c2.296876 1.210937 4.894532 1.839844 7.554688 1.839844 4.417969 0 8.644531-1.71875 11.597656-4.714844 4.488282-4.550782 5.65625-10.785156 3.125-16.675782-2.902344-6.753906-9.957031-11.46875-17.148437-11.46875h-.351563c-6.273437.121094-11.167968 4.25-12.734375 10.777344-1.230469 5.074219-.207031 11.085938 2.601563 15.316406l.796875 1.199219-14.914063 19.175781c-1.09375 1.40625-2.734375 3.515626-2.648437 6.136719.132812 3.804688 3.714843 6.128907 5.4375 7.246094l25.308593 16.410156-2.21875 1.726563c-17.074218 13.300781-36.804687 22.851562-57.0625 27.617187-7.175781 1.695313-13.710937 2.519531-19.972656 2.519531zm-42.269531-208.992187c-.398437 0-.785156.113281-1.121094.335937-.925781.617188-1.183593 1.882813-.5625 2.816407 5 7.574219 13.78125 12.273437 22.921875 12.273437.554688 0 1.101563-.015625 1.65625-.054687 9.617188-.613281 18.578125-6.605469 22.828125-15.265625.238281-.484375.269531-1.035156.09375-1.546875s-.539062-.925781-1.03125-1.167969c-.28125-.136719-.582031-.207031-.894531-.207031-.777344 0-1.476562.433593-1.816406 1.132812-3.5625 7.257813-11.371094 12.480469-19.441406 12.996094-.457032.03125-.917969.042969-1.378907.042969-7.675781 0-15.351562-4.097656-19.554687-10.445313-.378906-.570312-1.011719-.910156-1.699219-.910156zm0 0" fill="#fff"/><path d="m248.042969 227.96875c-1.105469 0-2.222657-.054688-3.3125-.160156l-1.269531-.121094-.425782-1.199219c-3.730468-10.515625-8.597656-20.640625-14.464844-30.09375l-.714843-1.15625.886719-1.195312c4.523437-6.886719 12.515624-11.777344 20.796874-12.691407 1.007813-.109374 2.039063-.167968 3.058594-.167968 7.445313 0 14.761719 2.957031 20.066406 8.109375.378907.371093.882813.574219 1.414063.574219.554687 0 1.074219-.21875 1.457031-.613282.378906-.386718.582032-.902344.574219-1.445312-.003906-.539063-.222656-1.046875-.613281-1.421875-6.046875-5.886719-14.402344-9.257813-22.921875-9.257813-1.160157 0-2.328125.0625-3.476563.191406-8.535156.933594-16.550781 5.34375-21.988281 12.09375l-1.667969 2.070313-1.527344-2.175781c-2.859374-4.078125-5.933593-8.027344-9.128906-11.742188l-1.738281-2.023437 2.425781-1.101563c9.578125-4.367187 17.066406-13.304687 19.546875-23.320312.921875-3.699219 1.179688-7.609375.769531-11.628906l-.152343-1.511719 1.414062-.550781c4.234375-1.660157 8.792969-2.5 13.558594-2.5 9.5 0 18.796875 3.425781 25.511719 9.394531.378906.335937.847656.515625 1.351562.515625.582032 0 1.125-.242188 1.519532-.6875.355468-.398438.535156-.917969.503906-1.457032-.03125-.542968-.269532-1.042968-.675782-1.402343-7.488281-6.664063-17.730468-10.488281-28.101562-10.488281-4.824219 0-9.519531.800781-13.945312 2.378906l-1.9375.691406-.636719-1.957031c-1.652344-5.0625-4.382813-9.664063-7.90625-13.308594-.390625-.40625-.90625-.625-1.460938-.625-.527343 0-1.035156.203125-1.417969.570313-.796874.769531-.816406 2.066406-.039062 2.882812 7.160156 7.414062 10.1875 18.679688 7.707031 28.691406-2.453125 9.886719-10.28125 18.390625-19.949219 21.675782l-1.226562.414062-.882812-.949219c-.121094-.132812-.246094-.265625-.378907-.398437-7.085937-7.253906-14.996093-13.917969-22.644531-20.363282-15.550781-13.097656-30.242188-25.472656-39.289062-42.648437-7.320313-13.890625-9.492188-28.292969-6.828126-45.320313l.140626-.902343.773437-.484375c.246094-.152344.394531-.265625.496094-.375 3.390625-3.710938 7.449219-7.035156 12.046875-9.871094l3.371094-2.078125-.328126 3.949219c-.6875 8.191406 1.582032 16.621094 6.222657 23.128906 6.378906 8.945312 17.15625 14.503906 28.132812 14.503906h.230469c.523438-.003906 1.03125-.222656 1.417969-.609375.378906-.386719.585937-.894531.582031-1.433593-.003906-1.121094-.914062-2.027344-2.03125-2.027344h-.261719c-9.648437 0-19.136719-4.898438-24.765625-12.789063-5.292968-7.433593-6.96875-17.152343-4.488281-25.992187l.265625-.949219.917969-.367187c7.171875-2.875 14.925781-4.394532 22.421875-4.394532 2.683594 0 5.363281.191406 7.960937.574219 2.023438.304687 3.996094.699219 6.089844 1.113281l.257813.054688c2.199218.445312 4.339843.875 6.484374 1.191406l.839844.125.496094.691406c.039062.054688.074219.109375.109375.167969 8.472656 10.257813 12.164063 24.167969 9.894531 37.257813-2.289062 13.121093-10.5 25.003906-21.964844 31.789062-.964843.570312-1.285156 1.816406-.714843 2.777344.371093.621094 1.03125 1 1.757812 1 .363281 0 .714844-.097656 1.039063-.289063 10.492187-6.199219 18.636718-16.535156 22.339844-28.351562l.253906-.808594.890625-.445313.070312-.027343c4.796875-2.667969 10.492188-4.101563 16.386719-4.101563 8.453125 0 16.757812 3.003906 22.789062 8.242188.371094.320312.84375.5 1.328126.5.589843 0 1.148437-.253906 1.523437-.691406.363281-.417969.539063-.941407.5-1.484376-.035156-.542968-.285156-1.039062-.691406-1.394531-6.71875-5.835937-16.015625-9.183593-25.507813-9.183593-4.496094 0-8.84375.726562-12.929687 2.160156l-2.988281 1.050781.335937-3.152344c1.214844-11.265625-1.476563-22.785156-7.570313-32.425781l-1.695312-2.683594 3.152344-.371094c.859375-.101562 1.546875-.207031 2.160156-.332031 4.253906-.839843 8.070312-2.765625 11.761719-4.628906l.101562-.054687c3.257813-1.640626 6.339844-3.1875 9.660157-4.027344 2.015624-.503906 4.09375-.75 6.355468-.75 5.664063 0 11.328125 1.535156 17.328125 3.160156l.148438.039062c3.953125 1.066407 8.042969 2.167969 12.140625 2.792969l.574218.085938.4375.382812c10.523438 9.167969 16.582032 23.511719 15.8125 37.429688-.785156 14.066406-8.503906 27.738281-20.152343 35.671875-.925781.628906-1.167969 1.894531-.539063 2.824218.378906.558594 1.007813.894532 1.683594.894532.402344 0 .796875-.125 1.132812-.355469 9.957032-6.773437 17.417969-17.550781 20.480469-29.570313l.5625-2.214843 2.121094.851562c4.019531 1.617188 8.25 2.4375 12.5625 2.4375 1.871094 0 3.734375-.15625 5.535156-.460937 7.664063-1.285156 14.691407-5.210938 19.800781-11.054688.359376-.414062.539063-.9375.5-1.480468-.035156-.539063-.28125-1.03125-.6875-1.382813-.480468-.421875-.996093-.511719-1.339843-.511719-.585938 0-1.144531.253906-1.53125.699219-4.421875 5.0625-10.765625 8.609375-17.40625 9.722656-1.542969.257813-3.136719.390625-4.734375.390625-4.457032 0-8.921875-1-12.910156-2.894531l-1.253907-.59375.160157-1.851563c.027343-.304687.054687-.609374.074218-.910156.671875-12.203125-3.460937-24.824218-11.34375-34.605468l-2.28125-2.835938 3.617188-.410156c3.683594-.414063 7.324218-1.3125 10.535156-2.101563 4.359375-1.066406 8.476562-2.070312 12.714844-2.226562.367187-.015625.734375-.023438 1.101562-.023438 11.28125 0 22 6.402344 27.304688 16.308594 1.210937 2.257813 2.136718 4.636719 3.121094 7.15625 1.429687 3.679687 2.902343 7.476563 5.3125 10.828125 3.042968 4.21875 7.230468 7.234375 11.277343 10.152344 2.671875 1.914062 5.390625 3.863281 7.753907 6.175781 6.5 6.371094 9.960937 15.578125 9.269531 24.632813-.695313 9.054687-5.519531 17.628906-12.910157 22.933593-1.210937.875-2.503906 1.675781-3.871093 2.523438l-.3125.191406c-3.996094 2.457031-8.519531 5.242187-10.84375 9.910156l-.773438 1.554688-1.648437-.546875c-7.664063-2.546875-14.4375-7.554688-19.070313-14.09375-4.996093-7.039063-7.503906-16.03125-6.882812-24.667969.039062-.542969-.132813-1.070313-.492188-1.480469-.351562-.414062-.847656-.660156-1.386719-.699218l-.132812-.003907c-1.066406 0-1.960938.824219-2.039062 1.882813-.652344 9.003906 1.675781 18.148437 6.558593 25.742187l1.402344 2.183594-2.464844.800781c-13.179687 4.277344-23.683593 15.070313-27.40625 28.164063-.148437.523437-.082031 1.070312.179688 1.542969.265625.472656.699219.816406 1.222656.964843.171875.046875.371094.078125.554687.078125.917969 0 1.703126-.597656 1.957032-1.484375 3.695312-12.972656 14.640625-23.28125 27.886718-26.257812l1.089844-.246094.78125.800781c4.863282 5 10.933594 8.742188 17.554688 10.828125l1.496094.46875-.101563 1.566407c-.097656 1.523437-.078125 3.046874-.058594 4.523437l.003907.28125c.03125 1.449219.050781 2.878906-.023438 4.261719-.6875 13.113281-12.324219 25.125-25.40625 26.238281-.945312.082031-1.957031.121094-3.082031.121094-1.726563 0-3.519531-.09375-5.253907-.1875-1.785156-.089844-3.632812-.183594-5.4375-.183594-3.324218 0-7.664062.277344-11.734374 2.460937-5.585938 2.992188-8.671876 8.414063-11.65625 13.65625-1.171876 2.054688-2.238282 3.917969-3.4375 5.667969-6.734376 9.855469-18.464844 15.980469-30.605469 15.980469zm0 0" fill="#ed6d66"/><path d="m189.011719 282.382812c-1.398438 0-2.484375-.265624-3.316407-.808593-1.957031-1.289063-2.625-4.1875-3.144531-7.046875l-2.628906-14.523438c-.316406-1.75-.507813-3.121094-.027344-4.15625.601563-1.335937 2.199219-2.125 5.683594-2.800781 1.445313-.277344 3.21875-.777344 5.269531-1.351563 3.332032-.925781 9.46875-2.636718 13.28125-2.636718 1.511719 0 2.582032.261718 3.367188.820312 1.757812 1.242188 4.089844 4.683594 6.5 20.355469l.21875 1.429687c.519531 3.296876.230468 5.332032-.917969 6.390626-.851563.785156-2.210937 1.054687-3.894531 1.332031l-16.691406 2.617187c-1.421876.226563-2.597657.378906-3.699219.378906zm0 0" fill="#bfc7d8"/><path d="m190.871094 348.285156c-2.027344 0-3.976563-.472656-5.644532-1.363281-3.820312-2.050781-6.285156-6.820313-6.285156-12.152344 0-1.222656.136719-2.414062.40625-3.535156 1.15625-4.824219 4.285156-7.539063 8.820313-7.652344.105469-.007812.214843-.011719.3125-.011719 5.613281 0 11.128906 3.707032 13.417969 9.019532 1.882812 4.371094 1.050781 8.828125-2.292969 12.222656-2.167969 2.207031-5.355469 3.472656-8.734375 3.472656zm0 0" fill="#bfc7d8"/><path d="m142.796875 198.464844c-3.976563 0-7.773437-.59375-11.277344-1.757813-11.128906-3.703125-19.195312-13.03125-24-20.207031-5.433593-8.136719-11.382812-20.507812-8.882812-33.246094 1.652343-8.433594 7.1875-16.792968 15.59375-23.535156 7.136719-5.730469 15.363281-9.816406 24.605469-14.1875l1.8125-.859375.851562 1.816406c.554688 1.179688 1.085938 2.25 1.621094 3.265625 9.394531 17.839844 25.046875 31.039063 40.1875 43.804688 4.578125 3.855468 8.636718 7.289062 12.664062 10.886718l1.546875 1.382813-1.4375 1.496094c-8.761719 9.109375-17.488281 17.78125-27.910156 23.804687-8.320313 4.800782-17.09375 7.335938-25.375 7.335938zm0 0" fill="#bfc7d8"/><g fill="#939baa"><path d="m330.003906 467.28125c-34.585937-33.726562-49.289062-87.65625-36.582031-134.199219 1.667969-6.113281 3.8125-12.234375 5.882813-18.152343l.175781-.511719c2.347656-6.667969 4.769531-13.558594 6.59375-20.570313 3.15625-12.15625 4.117187-22.371094-.820313-35.714844l-.898437-2.429687 2.578125-.253906c.886718-.085938 1.78125-.167969 2.664062-.25l.667969-.058594c6.339844-.570313 13.519531-1.210937 20.460937-2.316406l2.4375-.386719-.125 2.464844c-.773437 15.058594-4.957031 30.003906-9.003906 44.457031-4.378906 15.621094-8.910156 31.773437-9.265625 48.34375-.394531 18.78125 4.597657 38.925781 14.835938 59.878906 8.261719 16.886719 18.753906 32.253907 29.679687 47.816407l1.515625 2.15625-29.90625 10.59375zm0 0"/><path d="m290.683594 479.96875c-.070313-.367188-.199219-.664062-.394532-.90625-26.246093-32.515625-37.597656-76.476562-30.371093-117.609375 1.617187-9.191406 4.125-18.320313 6.554687-27.144531 1.753906-6.363282 3.746094-13.574219 5.324219-20.816406 4.191406-19.320313 4.160156-35.222657-.101563-48.617188l-.554687-1.738281 1.679687-.710938c6.929688-2.925781 15.167969-4.914062 25.175782-6.078125l2.21875-2.121094.652344 3.679688c.023437.113281.046874.214844.085937.304688 4.53125 11.460937 4.84375 20.523437 1.183594 34.621093-1.773438 6.835938-4.167969 13.652344-6.480469 20.242188l-.121094.34375c-2.117187 6.042969-4.308594 12.289062-6.023437 18.597656-6.519531 23.855469-6.328125 49.636719.546875 74.550781 6.410156 23.21875 18.289062 44.273438 34.359375 60.882813l2.164062 2.234375-35.464843 12.582031zm0 0"/><path d="m254.945312 492.78125c-9.359374-36.21875-27.785156-69.863281-53.28125-97.289062l-1.371093-1.476563 1.945312-1.78125c.667969-.613281 1.34375-1.226563 2.003907-1.855469 4.015624-3.804687 7.964843-7.976562 11.738281-12.398437l2.160156-2.53125 1.21875 3.09375c7.953125 20.15625 21.753906 38.4375 38.863281 51.472656.269532.207031.566406.335937.882813.386719l1.226562.195312.367188 1.1875c5.664062 18.199219 14.398437 34.765625 25.964843 49.234375l1.753907 2.195313-32.929688 11.679687zm0 0"/><path d="m226.601562 502.402344c-1.734374-37.679688-18.238281-69.601563-46.46875-89.878906l-2.394531-1.71875 2.484375-1.589844c5.289063-3.386719 10.519532-7.199219 15.546875-11.339844l1.449219-1.195312 1.285156 1.375c25.308594 27.164062 43.527344 60.511718 52.691406 96.4375l.453126 1.773437-24.921876 8.828125zm0 0"/></g><path d="m116.125 214.234375c-2-.976563-4.417969-.152344-5.394531 1.84375-3.253907 6.632813-10.394531 11.410156-17.769531 11.882813-7.382813.476562-15.0625-3.347657-19.140626-9.511719-1.230468-1.855469-3.730468-2.367188-5.585937-1.136719-1.859375 1.226562-2.367187 3.726562-1.140625 5.585938 5.378906 8.128906 14.882812 13.167968 24.597656 13.167968.59375 0 1.191406-.019531 1.785156-.058594 10.324219-.660156 19.933594-7.089843 24.488282-16.375.984375-2 .15625-4.417968-1.839844-5.398437zm0 0" fill="#231f20"/><path d="m393.089844 46.167969c-12.117188-16.191407-30.085938-28.832031-51.960938-36.554688-17.75-6.269531-38.15625-9.410156-62.394531-9.6054685-48.125-.3632815-96.421875 10.6484375-139.613281 31.9179685-.53125.261719-.972656.628907-1.328125 1.058594-12.359375-.371094-27.566407 9.144531-36.535157 14.757813l-1.304687.816406c-14.386719 8.964844-27.140625 20.835937-36.886719 34.335937-17.324218 23.992188-26.019531 53.484375-24.484375 83.035157.320313 6.203124 1.050781 12.101562 1.757813 17.804687 1.550781 12.519531 3.011718 24.34375-.140625 37.269531-4.25 17.394532-12.960938 33.167969-25.203125 45.625-.722656.734375-1.460938 1.460938-2.199219 2.191406-3.445313 3.402344-7.007813 6.917969-9.496094 11.464844-3.875 7.070313-3.71875 15.078125.402344 20.402344 3.441406 4.445312 9.421875 6.835938 16.875 6.761719 2.226563-.023438 4.402344-.230469 6.503906-.433594 2.878907-.277344 5.605469-.535156 8.226563-.316406 10.351562.863281 19.210937 10.675781 18.957031 21-.386719 15.527343 2.226563 31.984375 7.761719 48.921875 3.507812 10.730468 8.046875 21.132812 13.484375 30.914062.605469 1.085938 1.214843 2.230469 1.835937 3.402344 4.578125 8.59375 10.277344 19.289062 21.234375 21.402344 4.660157.902344 9.335938 1.355468 14.152344 1.355468 6.742187 0 13.753906-.890624 21.359375-2.679687 13.773438-3.242187 27.101562-8.515625 39.617188-15.570313 29.605468 19.761719 46.722656 53.488282 46.976562 92.550782.007812 1.304687.644531 2.523437 1.714844 3.273437.6875.480469 1.496094.730469 2.316406.730469.453125 0 .90625-.078125 1.347656-.230469l139.285156-49.402343c1.191407-.421876 2.113282-1.375 2.496094-2.574219.382813-1.203125.179688-2.515625-.546875-3.546875-11.492187-16.324219-23.382812-33.207032-32.238281-51.324219-9.820312-20.078125-14.605469-39.285156-14.226562-57.09375.335937-15.765625 4.761718-31.558594 9.039062-46.835937 4.320312-15.414063 8.769531-31.339844 9.292969-47.738282 4.566406-1.03125 9.082031-2.351562 13.484375-4.109375 20.226562-8.078125 37.289062-25.019531 48.050781-47.707031 8.542969-18.019531 13.226563-39.585938 14.304687-65.925781 1.546876-37.785157-5.824218-67.84375-21.917968-89.34375zm-250.335938 15.96875c3.386719-3.695313 7.335938-6.878907 11.640625-9.527344-.722656 8.585937 1.558594 17.410156 6.582031 24.460937 6.75 9.472657 18.136719 15.335938 29.765626 15.335938.074218 0 .148437 0 .222656-.003906 2.226562-.011719 4.019531-1.828125 4.007812-4.054688-.015625-2.21875-1.816406-4.007812-4.03125-4.007812-.011718 0-.019531 0-.027344 0-9.082031.074218-18.078124-4.519532-23.371093-11.949219-4.949219-6.945313-6.492188-16.101563-4.191407-24.292969 9.300782-3.730468 19.554688-5.144531 29.351563-3.695312 2.042969.300781 4.082031.710937 6.242187 1.144531 2.167969.4375 4.363282.875 6.582032 1.207031.050781.070313.085937.144532.140625.210938 8.140625 9.808594 11.699219 23.15625 9.515625 35.714844-2.179688 12.554687-10.03125 23.921874-21 30.40625-1.917969 1.136718-2.554688 3.609374-1.421875 5.523437.753906 1.273437 2.097656 1.980469 3.476562 1.980469.695313 0 1.402344-.179688 2.046875-.5625 11.050782-6.535156 19.410156-17.265625 23.246094-29.480469.042969-.019531.085938-.03125.128906-.054687 11.507813-6.429688 27.082032-4.824219 37.035156 3.820312.761719.664062 1.703126.988281 2.640626.988281 1.128906 0 2.25-.46875 3.046874-1.386719 1.460938-1.679687 1.28125-4.226562-.398437-5.6875-10.8125-9.394531-26.9375-12.128906-40.414063-7.398437 1.261719-11.710937-1.585937-23.765625-7.871093-33.714844.773437-.085937 1.550781-.203125 2.328125-.355469 4.519531-.894531 8.46875-2.890624 12.292968-4.816406 3.183594-1.609375 6.191407-3.128906 9.316407-3.910156 7.160156-1.796875 14.691406.238281 22.667969 2.394531 4.082031 1.105469 8.25 2.230469 12.515624 2.878907 10.074219 8.785156 15.867188 22.464843 15.128907 35.8125-.746094 13.464843-8.136719 26.542968-19.285157 34.128906-1.839843 1.253906-2.316406 3.761718-1.0625 5.601562.777344 1.148438 2.046876 1.765625 3.335938 1.765625.78125 0 1.570312-.226562 2.265625-.699219 10.488281-7.144531 18.148437-18.402343 21.289063-30.726562 4.230468 1.695312 8.753906 2.578125 13.308593 2.578125 1.960938 0 3.921875-.164063 5.871094-.488281 8.113281-1.363282 15.558594-5.523438 20.96875-11.714844 1.464844-1.675781 1.292969-4.226562-.382813-5.6875-1.675781-1.464844-4.222656-1.292969-5.6875.382812-4.128906 4.722657-10.042968 8.027344-16.230468 9.066407-5.511719.921875-11.398438.066406-16.464844-2.335938.039062-.476562.09375-.949219.121094-1.425781.710937-12.84375-3.691406-25.949219-11.777344-35.984375 3.714844-.425781 7.300781-1.296875 10.789062-2.148437 4.257813-1.042969 8.28125-2.027344 12.3125-2.179688 10.8125-.410156 21.46875 5.714844 26.570313 15.234375 1.148437 2.144531 2.054687 4.476563 3.011719 6.945313 1.472656 3.789062 2.996094 7.710937 5.558594 11.261718 3.246093 4.503906 7.582031 7.625 11.773437 10.640625 2.71875 1.957031 5.289063 3.804688 7.484375 5.957031 6.074219 5.953126 9.3125 14.566407 8.664062 23.046876-.648437 8.480468-5.164062 16.503906-12.074218 21.460937-1.253906.898437-2.625 1.742187-4.074219 2.632813-4.242187 2.613281-9.023437 5.582031-11.574219 10.726562-7.191406-2.394531-13.703125-7.179688-18.070312-13.347656-4.738282-6.683594-7.113282-15.203125-6.519532-23.375.160157-2.222656-1.511718-4.152344-3.730468-4.316406-2.21875-.152344-4.152344 1.511718-4.3125 3.730468-.6875 9.488282 1.742187 18.984375 6.867187 26.964844-13.589843 4.414062-24.773437 15.703125-28.703125 29.515625-.613281 2.144531.628906 4.375 2.773438 4.984375.367187.101562.738281.152344 1.105468.152344 1.753907 0 3.371094-1.15625 3.875-2.929688 3.492188-12.261718 13.996094-22.070312 26.40625-24.863281 5.078126 5.222656 11.398438 9.144531 18.386719 11.339844-.105469 1.699219-.085937 3.375-.058593 4.957031.027343 1.449219.050781 2.820312-.019532 4.136719-.644531 12.164062-11.445312 23.3125-23.582031 24.347656-2.546875.214844-5.226563.078125-8.0625-.066406-6.078125-.3125-12.355469-.636719-18.21875 2.503906-6.070313 3.253906-9.3125 8.9375-12.449219 14.433594-1.125 1.964843-2.183594 3.820312-3.347656 5.527343-6.980469 10.214844-19.773438 16.140626-32.078125 14.964844-3.824219-10.761718-8.753906-20.976562-14.652344-30.484375.027344-.042969.058594-.078125.085938-.117187 4.257812-6.480469 11.691406-11.035156 19.398437-11.878906 7.828125-.859376 15.867188 1.902343 21.515625 7.386718 1.59375 1.550782 4.148438 1.515625 5.699219-.082031s1.515625-4.148437-.082031-5.699219c-7.351563-7.144531-17.816407-10.742187-28.011719-9.621094-9.105469 1-17.605469 5.730469-23.328125 12.839844-2.890625-4.128906-5.976563-8.101562-9.253906-11.902344 10.074219-4.589843 18-13.914062 20.667969-24.667968.996093-4.011719 1.234374-8.1875.816406-12.304688 12.183594-4.769531 27.230468-2.171875 37.007812 6.53125.769532.683594 1.726563 1.019532 2.679688 1.019532 1.109375 0 2.214844-.457032 3.011718-1.351563 1.480469-1.664063 1.332032-4.210937-.332031-5.691406-11.824219-10.527344-29.199219-13.785157-44.050781-8.5-1.707031-5.246094-4.539062-10.125-8.363281-14.082031-1.546875-1.601563-4.097657-1.648438-5.699219-.101563s-1.648438 4.097656-.101562 5.699219c6.699218 6.941406 9.527343 17.476562 7.207031 26.839844-2.300781 9.269531-9.605469 17.1875-18.644531 20.257812-.144532-.148438-.285157-.304688-.429688-.453125-7.136719-7.296875-15.085938-13.996094-22.777344-20.476563-15.398437-12.976562-29.945312-25.234374-38.808594-42.050781-7.027343-13.339843-9.222656-27.464843-6.621093-44.082031.324219-.191406.632812-.414062.898437-.707031zm24.410156 127.257812c-11.910156 6.878907-24.671874 8.851563-35.015624 5.414063-10.605469-3.523438-18.339844-12.507813-22.964844-19.421875-5.222656-7.8125-10.949219-19.664063-8.582032-31.75 1.558594-7.96875 6.839844-15.90625 14.875-22.355469 7.203126-5.78125 15.808594-9.960938 24.214844-13.949219.519532 1.117188 1.0625 2.234375 1.652344 3.355469 9.597656 18.210938 25.433594 31.554688 40.746094 44.460938 4.175781 3.519531 8.425781 7.105468 12.554687 10.792968-8.367187 8.691406-17.09375 17.453125-27.480469 23.453125zm-34.917968 233.773438c-11.886719 2.796875-22.097656 3.195312-32.136719 1.257812-7.179687-1.386719-11.679687-9.832031-15.648437-17.28125-.648438-1.214843-1.277344-2.398437-1.90625-3.527343-5.1875-9.332032-9.515626-19.257813-12.863282-29.5-1.46875-4.492188-2.710937-8.941407-3.746094-13.339844l40.605469.953125h.097657c2.183593 0 3.976562-1.742188 4.03125-3.9375.050781-2.222657-1.710938-4.070313-3.9375-4.125l-42.464844-.996094c-1.496094-8.492187-2.15625-16.773437-1.957032-24.773437.363282-14.625-11.703124-28.011719-26.347656-29.238282-.921875-.074218-1.835937-.105468-2.742187-.105468-2.367188 0-4.671875.21875-6.921875.433593-2.027344.195313-3.9375.378907-5.824219.398438-2.28125.007812-7.808594-.277344-10.410156-3.636719-2.449219-3.167969-1.617188-8.101562.292969-11.59375 1.921874-3.511719 4.917968-6.46875 8.089843-9.597656.769531-.757813 1.535157-1.515625 2.285157-2.28125 13.257812-13.488282 22.695312-30.554688 27.285156-49.359375 3.503906-14.363281 1.953125-26.902344.308594-40.175781-.6875-5.5625-1.398438-11.3125-1.707032-17.230469-1.4375-27.722657 6.722656-55.390625 22.972656-77.898438 9.136719-12.660156 21.105469-23.796875 34.609376-32.210937l1.324218-.828125c7.414063-4.636719 23.714844-14.84375 33.398438-13.449219-5.488282 16.613281-9.644532 37.148438-2.269532 58.722656-8.960937 4.246094-18.179687 8.683594-26.234374 15.144532-9.519532 7.640624-15.820313 17.261718-17.746094 27.097656-2.890625 14.785156 3.730468 28.703125 9.796875 37.777344 7.632812 11.421874 17.011719 19.234374 27.121093 22.59375 4.152344 1.378906 8.589844 2.058593 13.171876 2.058593 8.183593 0 16.832031-2.164062 25.148437-6.371093 10.371094 13.292968 17.292969 29.636718 19.554687 46.316406.085938.632812.328126 1.199218.660157 1.695312-1.441407.398438-2.761719.75-3.714844.9375-2.5625.5-7.894531 1.535156-10.046875 6.246094-1.308594 2.859375-.773438 5.800781-.421875 7.746094l2.628906 14.515625c.554688 3.074219 1.488281 8.21875 5.785157 11.035156 2.148437 1.410156 4.539062 1.804687 6.71875 1.804687 1.738281 0 3.335937-.25 4.566406-.445312l16.578125-2.605469c1.9375-.304687 4.867187-.765625 7.152343-2.855469 4.101563-3.75 3.132813-9.832031 2.816407-11.832031l-.214844-1.390625c-1.503906-9.785156-3.558594-20.542968-8.984375-24.382812-3.808594-2.699219-9.722656-2.0625-15.507812-.71875.019531-.273438.011718-.550782-.027344-.835938-2.4375-17.980468-9.507813-34.953125-20.507813-49.328125 4.691407-3.066406 9.015625-6.566406 13.109375-10.285156 7.578125 10.089844 13.191406 21.820313 16.257813 34.046875.460937 1.832031 2.101562 3.050781 3.90625 3.050781.324219 0 .65625-.039062.984375-.121093 2.160156-.542969 3.472656-2.730469 2.929687-4.890626-3.40625-13.566406-9.695312-26.574218-18.203125-37.679687 2.25-2.230469 4.449219-4.492187 6.621094-6.75 1.265625 1.214844 2.519531 2.4375 3.730469 3.675781 17.914062 18.320313 30.832031 41.738282 37.351562 67.730469s6.1875 52.734375-.957031 77.339844c-7.148438 24.605469-21.195312 47.367187-40.625 65.820312-1.644531 1.558594-3.324219 3.066407-5.023438 4.542969l-25.074218-16.253906c-2.582032-1.671875-2.675782-2.296875-2.679688-2.363282-.003906-.292968.457032-1.039062 1.371094-2.210937l13.613281-17.488281c.03125.015625.058594.039062.09375.054687 2.648438 1.417969 5.597657 2.101563 8.539063 2.101563 4.8125 0 9.601562-1.835938 13.019531-5.304688 5.078125-5.15625 6.402344-12.210937 3.539063-18.871094-3.226563-7.507812-10.996094-12.679687-18.984376-12.679687-.117187 0-.230468 0-.347656 0-7.265625.136719-12.894531 4.851563-14.6875 12.300781-1.261718 5.25-.453125 11.863282 2.886719 16.898438l-14.035156 18.035156c-1.1875 1.527344-3.175781 4.082031-3.0625 7.4375.164062 4.847656 4.5 7.65625 6.351562 8.855469l22.945313 14.875c-16.886719 13.164062-36.097656 22.496093-56.28125 27.25zm53.71875-168.15625c1.503906-.296875 3.324218-.804688 5.429687-1.390625 3.011719-.839844 9.1875-2.566406 12.730469-2.566406.984375 0 1.761719.132812 2.214844.457031 2.050781 1.449219 3.960937 7.851562 5.675781 19.023437l.222656 1.4375c.542969 3.425782-.023437 4.367188-.292969 4.613282-.496093.453124-1.984374.6875-2.964843.84375l-16.574219 2.605468c-2.207031.347656-4.457031.621094-5.617188-.136718-1.292968-.847657-1.851562-3.402344-2.269531-5.730469l-2.628906-14.515625c-.164063-.894532-.4375-2.398438-.179687-2.957032.285156-.625 1.714843-1.191406 4.253906-1.683593zm68.375 22.324219c.519531-.199219 1.007812-.507813 1.421875-.933594 3.207031-3.285156 6.679687-6.074219 10.550781-8.425782 3.535156 12.09375 3.386719 26.601563-.441406 44.230469-1.492188 6.851563-3.398438 13.785157-5.242188 20.488281-2.355468 8.570313-4.777344 17.417969-6.4375 26.390626-4.367187-6.90625-7.699218-14.539063-9.714844-22.414063-.113281-.433594-.304687-.820313-.535156-1.175781 1.695313-4.296875 3.207032-8.660156 4.492188-13.082032 4.214844-14.507812 6.183594-29.710937 5.90625-45.078124zm44.546875-19.082032h.007812c.046875.226563.105469.457032.195313.679688 4.359375 11.027344 4.652344 19.765625 1.113281 33.390625-1.753906 6.753906-4.132813 13.53125-6.4375 20.085937-2.167969 6.1875-4.414063 12.582032-6.191406 19.074219-6.609375 24.203125-6.417969 50.351563.554687 75.613281 6.519532 23.621094 18.527344 44.867188 34.851563 61.742188l-30.328125 10.757812c-.121094-.640625-.375-1.261718-.8125-1.800781-25.882813-32.054687-37.082032-75.417969-29.953125-116 1.589843-9.046875 4.09375-18.152344 6.515625-26.960937 1.875-6.808594 3.8125-13.851563 5.347656-20.917969 4.273438-19.664063 4.214844-35.921875-.152344-49.648438 7.015625-2.960937 15.257813-4.890625 25.289063-6.015625zm-42.003907 234.027344c-9.464843-36.609375-28.019531-70.464844-53.757812-98.15625.835938-.761719 1.671875-1.515625 2.496094-2.292969 4.207031-3.996093 8.160156-8.195312 11.875-12.558593 8.105468 20.535156 21.980468 38.972656 39.511718 52.335937.542969.414063 1.152344.667969 1.78125.769531 5.617188 18.0625 14.496094 35.101563 26.316407 49.894532zm-17.796874-145.785156c2.992187 8.257812 7.25 16.117187 12.554687 23.0625.261719.34375.578125.609375.917969.84375-1.742188 16.515625-.703125 33.292968 2.910156 49.5-14.5-12.890625-25.746094-29.636719-32.089844-47.933594 6.078125-8.035156 11.339844-16.570312 15.707032-25.472656zm-57.800782-14.796875c.660156-2.746094 2.410156-6.039063 7-6.125h.199219c4.777344 0 9.621094 3.253906 11.574219 7.800781.90625 2.113281 1.871094 6.226562-1.875 10.03125-2.957032 3-8.234375 3.773438-12.015625 1.75-4.445313-2.375-5.996094-8.832031-4.882813-13.457031zm.011719 79.199219c5.4375-3.480469 10.695313-7.316407 15.742187-11.484376 25.085938 26.921876 43.125 59.90625 52.222657 95.570313l-20.664063 7.328125c-1.75-38.027344-18.753906-70.910156-47.300781-91.414062zm140.8125-112.078126c-4.417969 15.753907-8.980469 32.050782-9.339844 48.835938-.40625 19.105469 4.65625 39.566406 15.042969 60.808594 8.347656 17.0625 19.136719 32.84375 29.835938 48.078125l-26.25 9.3125c-34.109376-33.265625-48.597657-86.28125-36.042969-132.246094 1.695312-6.21875 3.894531-12.472656 6.019531-18.527344 2.355469-6.710937 4.792969-13.648437 6.628906-20.730469 3.253906-12.519531 4.21875-23.164062-.875-36.917968 1.109375-.101563 2.226563-.203125 3.320313-.304688 6.804687-.609375 13.726562-1.234375 20.589843-2.324218-.757812 14.828124-4.90625 29.648437-8.929687 44.015624zm84.839844-163.640624c-1.035157 25.238281-5.464844 45.78125-13.535157 62.804687-9.742187 20.539063-25.691406 36.457031-43.753906 43.671875-12.449218 4.972656-26.421875 6.230469-39.933594 7.441406-3.847656.347656-7.828124.707032-11.738281 1.144532-14.195312 1.59375-30.324219 4.910156-44.164062 16.917968-.722657-8.785156-2.167969-17.582031-4.355469-26.296875-.574219-2.296875-1.21875-4.570312-1.886719-6.828125.125.003906.25.011719.375.011719 13.933594 0 27.824219-7.113281 35.699219-18.640625 1.351562-1.976562 2.542969-4.0625 3.695312-6.082031 2.6875-4.710938 5.226563-9.164063 9.253907-11.320313 3.882812-2.078125 8.796875-1.824218 13.996093-1.558594 2.980469.152344 6.066407.308594 9.160157.046876 16.203125-1.378907 30.089843-15.710938 30.949219-31.953126.085937-1.597656.058593-3.175781.03125-4.703124-.058594-3.320313-.113282-6.457032 1.03125-8.914063 1.480468-3.183594 4.984374-5.335937 8.691406-7.621094 1.503906-.925781 3.058594-1.882812 4.546875-2.949219 8.820312-6.328124 14.582031-16.570312 15.410156-27.394531.832031-10.824219-3.304687-21.824219-11.058594-29.421875-2.632812-2.578125-5.574219-4.695312-8.414062-6.742187-3.839844-2.761719-7.464844-5.375-9.949219-8.8125-1.957031-2.71875-3.230469-5.996094-4.578125-9.46875-1.003906-2.582031-2.042969-5.253907-3.425781-7.832031-6.519532-12.171876-20.175782-20.007813-33.976563-19.480469-4.851562.179687-9.464843 1.308593-13.925781 2.402343-4.324219 1.054688-8.40625 2.054688-12.503906 2.179688-5.910156.179688-11.867188-1.429688-18.183594-3.132812-8.621094-2.332032-17.535156-4.742188-26.734375-2.433594-3.992187 1-7.546875 2.796875-10.988281 4.53125-3.488282 1.761718-6.785156 3.425781-10.222656 4.105468-5.003907.992188-10.308594-.074218-15.925782-1.207031-2.164062-.433593-4.40625-.882812-6.65625-1.21875-17.296875-2.554687-35.238281 2.316407-49.007812 12.894531.859375-3.035156 1.847656-6.148437 2.976562-9.355468.382813-1.078125.265625-2.21875-.226562-3.175782 40.796875-19.160156 85.992187-29.066406 131.046875-28.71875 23.328125.191407 42.882812 3.179688 59.777343 9.144532 20.367188 7.191406 37.03125 18.875 48.191407 33.785156 14.949219 19.976562 21.785156 48.296875 20.3125 84.179688zm0 0" fill="#231f20"/></svg>